<?xml version="1.0" standalone="no"?><!DOCTYPE svg PUBLIC "-//W3C//DTD SVG 1.1//EN" "http://www.w3.org/Graphics/SVG/1.1/DTD/svg11.dtd"><svg t="1767680831223" class="icon" viewBox="0 0 1024 1024" version="1.1" xmlns="http://www.w3.org/2000/svg" p-id="4565" xmlns:xlink="http://www.w3.org/1999/xlink" width="200" height="200"><path d="M263.466156 420.566078h124.941383v39.250171H263.466156v-39.250171z m0 144.616405h124.941383v39.250171H263.466156v-39.250171z m0 0" fill="#0068EB" p-id="4566"></path><path d="M260.46996 420.566078h39.250171v183.766703h-39.250171zM617.916171 419.767093h39.250171V605.23164h-39.250171V419.767093z m105.366234 0H762.532576V605.23164h-39.250171V419.767093z m0 0" fill="#0068EB" p-id="4567"></path><path d="M617.916171 565.981469H762.532576V605.23164H617.916171zM430.953526 420.566078h124.941383v39.250171H430.953526v-39.250171z m0 82.095777h144.616405v39.250171H430.953526v-39.250171z m0 0" fill="#0068EB" p-id="4568"></path><path d="M428.057203 420.566078h39.25017v183.766703h-39.25017v-183.766703z m119.348483 0h39.250171v121.246075h-39.250171V420.566078z m0 0" fill="#0068EB" p-id="4569"></path><path d="M880.283088 369.830489h108.66205c18.67629 0 33.857017-15.180728 33.857017-33.857018s-15.180728-33.857017-33.857017-33.857017H880.283088c-2.197211 0-4.394421 0.199746-6.491759 0.699112v-94.480054c0-32.159173-26.066907-58.22608-58.22608-58.226081h-82.894762c0.399493-2.097337 0.699112-4.394421 0.699112-6.591631V34.955623c0-18.67629-15.180728-33.857017-33.857017-33.857018S665.655564 16.279333 665.655564 34.955623v108.66205c0 2.297084 0.199746 4.494294 0.699113 6.591632h-121.845314c0.399493-2.097337 0.699112-4.394421 0.699113-6.591632V34.955623c0-18.67629-15.180728-33.857017-33.857018-33.857018S477.494441 16.279333 477.494441 34.955623v108.66205c0 2.297084 0.199746 4.494294 0.699112 6.591632h-121.845313c0.399493-2.097337 0.699112-4.394421 0.699112-6.591632V34.955623c0-18.67629-15.180728-33.857017-33.857017-33.857018S289.333317 16.279333 289.333317 34.955623v108.66205c0 2.297084 0.199746 4.494294 0.699113 6.591632h-82.695017c-32.159173 0-58.22608 26.066907-58.22608 58.22608v71.109724c-2.197211-0.499366-4.394421-0.699112-6.691505-0.699113H33.857651c-18.67629 0-33.857017 15.180728-33.857017 33.857018S15.181362 346.560031 33.857651 346.560031h108.662051c2.297084 0 4.594168-0.199746 6.691504-0.699112v121.845313c-2.197211-0.499366-4.394421-0.699112-6.691504-0.699112H33.857651c-18.67629 0-33.857017 15.180728-33.857017 33.857017s15.180728 33.857017 33.857017 33.857018h108.662051c2.297084 0 4.594168-0.199746 6.691504-0.699113v121.845314c-2.197211-0.499366-4.394421-0.699112-6.691504-0.699113H33.857651C15.181362 655.168243 0.000634 670.348971 0.000634 689.025261s15.180728 33.857017 33.857017 33.857017h108.662051c2.297084 0 4.594168-0.199746 6.691504-0.699112v94.480055c0 32.159173 26.066907 58.22608 58.226081 58.22608H290.132303c-0.399493 2.097337-0.699112 4.394421-0.699113 6.591631v108.662051c0 18.67629 15.180728 33.857017 33.857018 33.857017s33.857017-15.180728 33.857017-33.857017V881.381059c0-2.297084-0.199746-4.494294-0.699112-6.591632h121.845313c-0.399493 2.097337-0.699112 4.394421-0.699112 6.591632v108.66205c0 18.67629 15.180728 33.857017 33.857017 33.857018s33.857017-15.180728 33.857018-33.857018V881.381059c0-2.297084-0.199746-4.494294-0.699113-6.591632h121.845314c-0.399493 2.097337-0.699112 4.394421-0.699113 6.591632v108.66205c0 18.67629 15.180728 33.857017 33.857018 33.857018s33.857017-15.180728 33.857017-33.857018V881.381059c0-2.297084-0.199746-4.494294-0.699112-6.591632h82.894762c32.159173 0 58.22608-26.066907 58.226081-58.22608v-71.109724c2.097337 0.399493 4.294548 0.699112 6.491758 0.699113h108.66205c18.67629 0 33.857017-15.180728 33.857018-33.857018s-15.180728-33.857017-33.857018-33.857017H880.283088c-2.197211 0-4.394421 0.199746-6.491759 0.699112V557.2925c2.097337 0.399493 4.294548 0.699112 6.491759 0.699112h108.66205c18.67629 0 33.857017-15.180728 33.857017-33.857017s-15.180728-33.857017-33.857017-33.857018H880.283088c-2.197211 0-4.394421 0.199746-6.491759 0.699113V369.231249c2.097337 0.399493 4.294548 0.599239 6.491759 0.59924zM816.863601 781.008485c0 20.374134-16.479079 36.75334-36.753341 36.753341H242.992149c-20.374134 0-36.75334-16.479079-36.753341-36.753341V243.890374c0-20.374134 16.479079-36.75334 36.753341-36.753341h537.118111c20.374134 0 36.75334 16.479079 36.753341 36.753341V781.008485z" fill="#0068EB" p-id="4570"></path></svg>