<?xml version="1.0" standalone="no"?><!DOCTYPE svg PUBLIC "-//W3C//DTD SVG 1.1//EN" "http://www.w3.org/Graphics/SVG/1.1/DTD/svg11.dtd"><svg t="1767680980215" class="icon" viewBox="0 0 1024 1024" version="1.1" xmlns="http://www.w3.org/2000/svg" p-id="9388" xmlns:xlink="http://www.w3.org/1999/xlink" width="200" height="200"><path d="M938.666667 96C938.666667 43.008 895.402667 0 842.069333 0H181.930667C128.597333 0 85.333333 43.008 85.333333 96v832C85.333333 980.992 128.597333 1024 181.930667 1024h660.138666C895.402667 1024 938.666667 980.992 938.666667 928v-832z m-64.426667 832a32.085333 32.085333 0 0 1-32.170667 32H181.930667a32.085333 32.085333 0 0 1-32.170667-32v-832c0-17.664 14.421333-32 32.170667-32h660.138666c17.749333 0 32.170667 14.336 32.170667 32v832z m-374.613333-692.906667A275.882667 275.882667 0 0 0 244.906667 404.309333c-42.666667 102.4-19.029333 220.330667 59.818666 298.666667a277.077333 277.077333 0 0 0 300.629334 59.392 274.090667 274.090667 0 0 0 170.24-253.184 275.285333 275.285333 0 0 0-275.797334-274.090667z m0 484.181334a210.773333 210.773333 0 0 1-211.370667-210.090667 210.773333 210.773333 0 0 1 211.456-210.090667 210.773333 210.773333 0 0 1 211.370667 210.090667 210.944 210.944 0 0 1-211.370667 210.090667z m0-325.973334c-47.104 0-89.6 28.245333-107.605334 71.594667a115.2 115.2 0 0 0 25.258667 126.208c33.28 33.109333 83.456 43.008 126.976 25.088 43.52-17.92 71.936-60.16 71.936-107.008 0-64-52.224-115.712-116.48-115.797333z m0 167.68a51.968 51.968 0 0 1-52.053334-51.797333c0-28.672 23.296-51.797333 52.053334-51.797333 28.842667 0 52.224 23.125333 52.224 51.797333a52.053333 52.053333 0 0 1-52.138667 51.797333zM294.741333 176.042667h434.688a32.085333 32.085333 0 0 0 32.256-32.085334 32.085333 32.085333 0 0 0-32.256-32H294.656a32.085333 32.085333 0 0 0-32.256 32c0 17.749333 14.506667 32 32.256 32z m434.688 671.914666H294.656a32.085333 32.085333 0 0 0-32.256 32.085334c0 17.664 14.506667 31.914667 32.256 31.914666h434.688a32.085333 32.085333 0 0 0 32.256-31.914666 32.085333 32.085333 0 0 0-32.256-32.085334z m-512-681.557333c15.530667 0 28.16-12.544 28.16-27.904a27.989333 27.989333 0 0 0-28.16-27.989333 27.989333 27.989333 0 0 0-19.882666 47.786666 28.16 28.16 0 0 0 19.882666 8.106667z m590.336-55.893333a27.818667 27.818667 0 1 0-19.882666 47.701333 28.16 28.16 0 0 0 47.957333-19.712 27.989333 27.989333 0 0 0-28.074667-27.989333zM217.344 844.970667a27.989333 27.989333 0 0 0-28.16 27.904c0 15.36 12.629333 27.904 28.16 27.904a27.989333 27.989333 0 0 0 19.882667-47.701334 28.16 28.16 0 0 0-19.882667-8.106666z m590.336 55.808a28.16 28.16 0 0 0 28.074667-27.904l-28.16 27.904z" fill="#468CFE" p-id="9389"></path></svg>